<svg width="128" height="51" fill="none" xmlns="http://www.w3.org/2000/svg"><path d="M51.161 17.435h-1.26v3.216h-2.425v-8.483h2.426v3.296h1.306l2.27-3.296h2.582l-2.924 4.068 3.126 4.415h-2.861l-2.24-3.216zm14.317-5.267v8.483h-2.426v-6.465h-2.644l-.078 1.498c-.04 1.115-.145 2.04-.31 2.776-.166.735-.436 1.314-.81 1.734-.372.42-.89.63-1.554.63-.353 0-.773-.062-1.26-.188l.124-2.019c.166.021.285.032.358.032.363 0 .633-.132.809-.394.186-.274.31-.615.373-1.025.062-.42.109-.973.14-1.656l.124-3.406h7.154zm10.715 0l-3.779 9.004c-.383.977-.86 1.666-1.43 2.065-.56.4-1.24.6-2.038.6a4.21 4.21 0 01-1.29-.205c-.426-.137-.773-.326-1.042-.568l.886-1.75c.187.168.4.3.638.394.248.095.492.142.73.142.332 0 .602-.084.81-.253.207-.157.393-.425.559-.804l.031-.079-3.623-8.546h2.503l2.349 5.756 2.364-5.756h2.332zm5.947.584c.798 0 1.498.168 2.099.504a3.347 3.347 0 011.384 1.388c.332.599.498 1.293.498 2.081 0 .81-.197 1.53-.591 2.16a3.908 3.908 0 01-1.618 1.451c-.694.336-1.482.505-2.364.505-1.461 0-2.612-.474-3.452-1.42-.83-.956-1.244-2.354-1.244-4.194 0-1.703.363-3.059 1.088-4.068.737-1.02 1.862-1.687 3.375-2.003l3.981-.804.327 2.113-3.515.71c-.954.189-1.664.504-2.13.946-.456.441-.726 1.067-.809 1.876.363-.4.798-.704 1.306-.914a4.13 4.13 0 011.664-.332zm-.576 6.18c.622 0 1.12-.204 1.493-.614.383-.41.575-.93.575-1.561 0-.642-.192-1.152-.575-1.53-.373-.378-.871-.568-1.493-.568-.632 0-1.14.19-1.524.568-.384.378-.576.888-.576 1.53 0 .64.198 1.166.591 1.576.394.4.897.6 1.509.6zM56.853 38.343v3.848h-2.255v-1.83H48.72v1.83h-2.255v-3.848h.342c.518-.01.876-.32 1.073-.93.197-.61.321-1.477.373-2.602l.11-2.933h7.293v6.465h1.197zm-6.407-3.358c-.031.862-.099 1.566-.202 2.113-.093.546-.275.962-.544 1.245h3.53v-4.446h-2.737l-.047 1.088zm11.853 5.503c-.881 0-1.675-.184-2.38-.552a4.197 4.197 0 01-1.632-1.561c-.394-.662-.591-1.414-.591-2.255s.197-1.593.59-2.255a4.087 4.087 0 011.633-1.545c.706-.379 1.499-.568 2.38-.568.881 0 1.67.19 2.364.568a4.087 4.087 0 011.633 1.545c.394.662.59 1.414.59 2.255s-.196 1.593-.59 2.255a4.197 4.197 0 01-1.633 1.56c-.695.369-1.483.553-2.364.553zm0-2.019c.622 0 1.13-.21 1.524-.63.404-.431.606-1.004.606-1.719 0-.715-.202-1.282-.606-1.703-.394-.431-.902-.647-1.524-.647s-1.135.216-1.54.647c-.404.42-.606.988-.606 1.703 0 .715.202 1.288.606 1.719.405.42.918.63 1.54.63zm11.093-6.007c.798 0 1.498.168 2.1.504a3.347 3.347 0 011.383 1.388c.332.6.498 1.293.498 2.081 0 .81-.197 1.53-.591 2.16a3.903 3.903 0 01-1.617 1.451c-.695.337-1.483.505-2.364.505-1.462 0-2.613-.473-3.453-1.42-.83-.956-1.244-2.354-1.244-4.194 0-1.703.363-3.059 1.089-4.068.736-1.02 1.86-1.687 3.374-2.002l3.982-.805.326 2.113-3.514.71c-.954.19-1.664.505-2.131.946-.456.442-.726 1.067-.809 1.877a3.6 3.6 0 011.307-.915 4.13 4.13 0 011.664-.331zm-.576 6.18c.622 0 1.12-.204 1.493-.614.384-.41.576-.93.576-1.561 0-.641-.192-1.151-.576-1.53-.373-.378-.87-.567-1.493-.567-.632 0-1.14.189-1.524.567-.383.379-.575.889-.575 1.53s.197 1.167.59 1.577c.395.4.898.599 1.51.599zm11.133-6.89a4.13 4.13 0 012.115.552 3.799 3.799 0 011.508 1.53c.363.651.545 1.413.545 2.286s-.182 1.64-.545 2.302a3.935 3.935 0 01-1.508 1.53 4.223 4.223 0 01-2.115.536c-1.068 0-1.908-.342-2.52-1.025v3.958h-2.426V31.878h2.318v.978c.6-.736 1.477-1.104 2.628-1.104zm-.42 6.717c.622 0 1.13-.21 1.524-.63.404-.431.606-1.004.606-1.719 0-.715-.202-1.282-.606-1.703-.394-.431-.902-.647-1.524-.647s-1.135.216-1.54.647c-.394.42-.59.988-.59 1.703 0 .715.196 1.288.59 1.719.405.42.918.63 1.54.63zm10.207 2.019c-.881 0-1.675-.184-2.38-.552a4.197 4.197 0 01-1.632-1.561c-.394-.662-.591-1.414-.591-2.255s.197-1.593.59-2.255a4.087 4.087 0 011.633-1.545c.706-.379 1.499-.568 2.38-.568.881 0 1.67.19 2.364.568a4.087 4.087 0 011.633 1.545c.394.662.59 1.414.59 2.255s-.196 1.593-.59 2.255a4.197 4.197 0 01-1.633 1.56c-.695.369-1.483.553-2.364.553zm0-2.019c.622 0 1.13-.21 1.524-.63.404-.431.606-1.004.606-1.719 0-.715-.202-1.282-.606-1.703-.394-.431-.902-.647-1.524-.647s-1.135.216-1.54.647c-.404.42-.606.988-.606 1.703 0 .715.202 1.288.606 1.719.405.42.918.63 1.54.63zm15.512-.126v3.848h-2.255v-1.83h-5.878v1.83H98.86v-3.848h.342c.518-.01.876-.32 1.073-.93.197-.61.321-1.477.373-2.602l.109-2.933h7.294v6.465h1.197zm-6.407-3.358c-.031.862-.098 1.566-.202 2.113-.093.546-.275.962-.544 1.245h3.53v-4.446h-2.737l-.047 1.088zm7.887-3.107h2.426v8.484h-2.426v-8.484zm1.213-1.182c-.446 0-.808-.132-1.088-.395a1.287 1.287 0 01-.42-.977c0-.39.14-.715.42-.978.28-.262.642-.394 1.088-.394.446 0 .809.126 1.089.378.28.253.42.568.42.947 0 .41-.14.751-.42 1.024-.28.263-.643.395-1.089.395zm3.465 1.182h2.426v8.484h-2.426v-8.484zm-.062-1.182a.985.985 0 01-.731-.3c-.187-.2-.28-.457-.28-.773 0-.315.093-.572.28-.772.197-.2.44-.3.731-.3.29 0 .534.1.731.3.197.2.295.457.295.773 0 .315-.098.572-.295.772-.197.2-.441.3-.731.3zm2.55 0c-.29 0-.534-.1-.731-.3-.197-.2-.295-.457-.295-.773 0-.315.098-.572.295-.772.197-.2.441-.3.731-.3s.529.1.715.3c.197.2.296.457.296.773 0 .315-.099.572-.296.772-.186.2-.425.3-.715.3zm8.628 5.234c.985.337 1.477 1.01 1.477 2.02 0 .767-.285 1.36-.855 1.78-.57.421-1.421.632-2.551.632h-4.463v-8.484h4.277c1.047 0 1.866.195 2.457.584.591.378.886.914.886 1.608 0 .42-.109.794-.326 1.12-.208.315-.508.562-.902.74zm-4.168-.567h1.835c.85 0 1.275-.305 1.275-.914 0-.6-.425-.9-1.275-.9h-1.835v1.814zm2.037 3.327c.892 0 1.338-.31 1.338-.93 0-.326-.104-.563-.311-.71-.208-.157-.534-.236-.98-.236h-2.084v1.876h2.037zM19.76 29.46c.298-.83.563-1.629.876-2.405.16-.385.345-.822.649-1.07a67.938 67.938 0 013.486-2.607c.25-.177.62-.23.94-.253 1.558-.112 3.12-.235 4.68-.258.46.011.896.2 1.222.53a83.192 83.192 0 013.595 4.351c.281.358.467.967.382 1.395-.63 3.172-1.323 6.33-2.03 9.485-.224 1.011-.776 1.807-1.627 2.443a942.113 942.113 0 00-11.412 8.675c-.633.489-1.065.526-1.719.021-4.02-3.106-8.083-6.158-12.112-9.25-.34-.261-.725-.653-.8-1.04-.672-3.474-1.275-6.96-1.907-10.44-.184-1.023.248-1.649 1.005-2.338 1.308-1.192 2.77-1.62 4.448-1.573 2.009.051 4.024.018 6.026.16 1.918.136 3.267 1.118 3.719 3.137.087.293.201.576.341.847.02.044.083.07.238.193v-.003zm8.331-13.932c-1.318.188-2.637.356-3.95.562-5.968.933-11.933 1.873-17.895 2.82-.592.095-.926.026-1.04-.713-.331-2.17-.75-4.327-1.14-6.488-.68-3.77.66-6.746 3.95-8.752 2.77-1.686 5.853-2.321 9-2.737 2.5-.33 4.979-.248 7.427.392 3.497.915 5.386 3.032 5.881 6.671.246 1.814.408 3.64.612 5.459.032.285.086.583.149 1 .4-.186.685-.329.984-.452.748-.312 1.48-.7 2.25-.908 1.762-.474 2.837.463 2.685 2.314a3.623 3.623 0 01-.422 1.477c-.844 1.438-2.074 2.49-3.454 3.472-1.083-1.53-2.366-.973-3.593-.443-4.019 1.741-8.115 3.228-12.428 4.02-4.61.848-9.202 1-13.748-.41-1.34-.416-2.49-1.08-3.128-2.427-.562-1.204-.072-2.06 1.188-1.799 1.308.272 2.553.849 3.821 1.304a.425.425 0 01.25.247c.28 1.286 1.391 1.323 2.276 1.286a56.94 56.94 0 006-.563c2.795-.395 5.58-.878 8.358-1.385a5.418 5.418 0 001.99-.77c1.394-.926 2.713-1.965 4.063-2.96l-.089-.226.003.01z" fill="#FF193C"/></svg>